<svg xmlns="http://www.w3.org/2000/svg" version="1.1" xmlns:xlink="http://www.w3.org/1999/xlink" xmlns:svgjs="http://svgjs.dev/svgjs" width="2000" height="1247" viewBox="0 0 2000 1247"><g transform="matrix(1,0,0,1,-1.2121212121212466,0.504858299595071)"><svg viewBox="0 0 396 247" data-background-color="#fffffff" preserveAspectRatio="xMidYMid meet" height="1247" width="2000" xmlns="http://www.w3.org/2000/svg" xmlns:xlink="http://www.w3.org/1999/xlink"><g id="tight-bounds" transform="matrix(1,0,0,1,0.2400000000000091,-0.09999999999999432)"><svg viewBox="0 0 395.52 247.2" height="247.2" width="395.52"><g><svg></svg></g><g><svg viewBox="0 0 395.52 247.2" height="247.2" width="395.52"><g transform="matrix(1,0,0,1,75.54432,92.25217710467705)"><svg viewBox="0 0 244.43135999999998 62.69564579064589" height="62.69564579064589" width="244.43135999999998"><g><svg viewBox="0 0 244.43135999999998 62.69564579064589" height="62.69564579064589" width="244.43135999999998"><g><svg viewBox="0 0 244.43135999999998 62.69564579064589" height="62.69564579064589" width="244.43135999999998"><g><svg viewBox="0 0 244.43135999999998 62.69564579064589" height="62.69564579064589" width="244.43135999999998"><g id="textblocktransform"><svg viewBox="0 0 244.43135999999998 62.69564579064589" height="62.69564579064589" width="244.43135999999998" id="textblock"><g><svg viewBox="0 0 244.43135999999998 62.69564579064589" height="62.69564579064589" width="244.43135999999998"><g transform="matrix(1,0,0,1,0,0)"><svg width="244.43135999999998" viewBox="2.8 -34.1 134.69 34.550000000000004" height="62.69564579064589" data-palette-color="#7a26c1"><path d="M29.8-7.5L29.7 0.3 6.3-30.25Q5.6-31.15 4.95-31.43 4.3-31.7 3.05-31.8L3.05-31.8Q2.9-32.35 2.85-32.95 2.8-33.55 2.8-33.95L2.8-33.95Q3.3-33.9 3.93-33.88 4.55-33.85 5.23-33.83 5.9-33.8 6.5-33.8L6.5-33.8Q7.45-33.8 8.33-33.85 9.2-33.9 9.85-33.95L9.85-33.95 29.8-7.5ZM2.8 0.15L2.8 0.15Q2.8-0.5 2.85-1.03 2.9-1.55 3.05-2L3.05-2Q4.4-2 5.15-2.65 5.9-3.3 6.2-4.93 6.5-6.55 6.5-9.35L6.5-9.35 6.5-30.5 9.05-30.5 9.05-9.35Q9.05-6.55 9.35-4.93 9.65-3.3 10.4-2.65 11.15-2 12.5-2L12.5-2Q12.65-1.55 12.7-1.05 12.75-0.55 12.75 0.15L12.75 0.15Q12 0.1 11.13 0.08 10.25 0.05 9.4 0.03 8.55 0 7.8 0L7.8 0Q7.1 0 6.15 0.03 5.2 0.05 4.33 0.08 3.45 0.1 2.8 0.15ZM29.7 0.3L29.7 0.3 29.3-4.7 29.3-24.7Q29.3-27.45 29-28.98 28.7-30.5 27.95-31.15 27.2-31.8 25.85-31.8L25.85-31.8Q25.7-32.65 25.65-33.08 25.6-33.5 25.6-33.95L25.6-33.95Q26.35-33.9 27.15-33.88 27.95-33.85 28.78-33.83 29.6-33.8 30.3-33.8L30.3-33.8Q31.35-33.8 32.7-33.85 34.05-33.9 35.05-33.95L35.05-33.95Q35.05-33.45 35-32.9 34.95-32.35 34.8-31.8L34.8-31.8Q33.7-31.8 33.05-31.15 32.4-30.5 32.13-28.98 31.85-27.45 31.85-24.7L31.85-24.7 31.85 0Q31.45 0.15 30.85 0.23 30.25 0.3 29.7 0.3ZM49.7 0.45L49.7 0.45Q46.15 0.45 43.8-1.15 41.45-2.75 40.27-5.48 39.1-8.2 39.1-11.45L39.1-11.45Q39.1-14.65 40.35-17.35 41.6-20.05 43.92-21.7 46.25-23.35 49.45-23.35L49.45-23.35Q52.7-23.35 54.67-21.95 56.65-20.55 57.62-18.2 58.6-15.85 58.8-13L58.8-13Q58.6-12 58.05-11.3L58.05-11.3Q57.2-11.3 55.5-11.3 53.8-11.3 51.65-11.28 49.5-11.25 47.25-11.18 45-11.1 43-11L43-11 43-13.55 53.6-13.55Q53.6-16.85 52.4-18.9 51.2-20.95 49-20.95L49-20.95Q47.8-20.95 46.65-20.23 45.5-19.5 44.75-17.68 44-15.85 44-12.5L44-12.5Q44-10.05 44.62-7.73 45.25-5.4 46.82-3.88 48.4-2.35 51.3-2.35L51.3-2.35Q52.95-2.35 54.55-3.1 56.15-3.85 57.4-5.25L57.4-5.25Q57.8-5.05 58.17-4.58 58.55-4.1 58.6-3.7L58.6-3.7Q56.9-1.45 54.67-0.5 52.45 0.45 49.7 0.45ZM74.1 0.45L74.1 0.45Q70.7 0.45 68.15-1.03 65.6-2.5 64.2-5.18 62.8-7.85 62.8-11.45L62.8-11.45Q62.8-14.85 64.25-17.55 65.7-20.25 68.25-21.8 70.8-23.35 74.1-23.35L74.1-23.35Q77.65-23.35 80.17-21.85 82.7-20.35 84.05-17.68 85.4-15 85.4-11.45L85.4-11.45Q85.4-8.05 83.97-5.35 82.55-2.65 80.02-1.1 77.5 0.45 74.1 0.45ZM74.5-1.95L74.5-1.95Q77.5-1.95 78.95-4.42 80.4-6.9 80.4-10.85L80.4-10.85Q80.4-13.95 79.47-16.23 78.55-18.5 77-19.73 75.45-20.95 73.6-20.95L73.6-20.95Q70.7-20.95 69.27-18.6 67.85-16.25 67.85-12.5L67.85-12.5Q67.85-9.15 68.67-6.78 69.5-4.4 71-3.18 72.5-1.95 74.5-1.95ZM105.29-34.1L105.29-34.1 117.19-6.8Q118.04-4.95 118.59-3.95 119.14-2.95 119.72-2.55 120.29-2.15 121.04-2L121.04-2Q121.24-1.35 121.29-0.9 121.34-0.45 121.34 0.15L121.34 0.15Q120.84 0.1 119.79 0.08 118.74 0.05 117.59 0.03 116.44 0 115.64 0L115.64 0Q115.04 0 114.24 0.03 113.44 0.05 112.59 0.08 111.74 0.1 111.07 0.13 110.39 0.15 109.99 0.15L109.99 0.15Q109.99-0.45 110.07-1 110.14-1.55 110.34-2L110.34-2Q112.39-2.25 112.77-2.93 113.14-3.6 112.14-5.9L112.14-5.9 105.19-22.15Q104.54-23.7 104.04-24.9 103.54-26.1 102.84-27.95L102.84-27.95 103.09-27.95Q102.49-26.05 102.02-24.73 101.54-23.4 101.09-22.2L101.09-22.2 95.39-7.35Q94.29-4.4 94.72-3.28 95.14-2.15 97.19-2L97.19-2Q97.39-1.55 97.47-1 97.54-0.45 97.54 0.15L97.54 0.15Q96.99 0.1 96.19 0.08 95.39 0.05 94.52 0.03 93.64 0 92.79 0L92.79 0Q91.54 0 90.44 0.05 89.34 0.1 88.64 0.15L88.64 0.15Q88.64-0.35 88.72-0.93 88.79-1.5 88.99-1.95L88.99-1.95Q89.89-2.15 90.49-2.65 91.09-3.15 91.67-4.28 92.24-5.4 92.99-7.35L92.99-7.35 103.34-33.9Q103.84-34 104.27-34.05 104.69-34.1 105.29-34.1ZM96.99-13.25L109.84-13.25 110.29-11Q106.94-11 103.12-10.95 99.29-10.9 96.19-10.8L96.19-10.8 96.99-13.25ZM129.09-6.35L129.09-27.45Q129.09-29.15 128.79-30.05 128.49-30.95 127.74-31.35 126.99-31.75 125.64-31.8L125.64-31.8Q125.49-32.2 125.44-32.75 125.39-33.3 125.39-33.95L125.39-33.95Q126.34-33.9 127.32-33.88 128.29-33.85 129.34-33.83 130.39-33.8 131.44-33.8L131.44-33.8Q132.54-33.8 133.54-33.83 134.54-33.85 135.52-33.88 136.49-33.9 137.49-33.95L137.49-33.95Q137.49-33.3 137.44-32.75 137.39-32.2 137.24-31.8L137.24-31.8Q135.94-31.75 135.17-31.35 134.39-30.95 134.09-30.05 133.79-29.15 133.79-27.45L133.79-27.45 133.79-6.35Q133.79-4.7 134.09-3.78 134.39-2.85 135.17-2.48 135.94-2.1 137.24-2L137.24-2Q137.39-1.6 137.44-1.07 137.49-0.55 137.49 0.15L137.49 0.15Q135.99 0.05 134.44 0.03 132.89 0 131.44 0L131.44 0Q129.99 0 128.34 0.03 126.69 0.05 125.39 0.15L125.39 0.15Q125.39-0.55 125.44-1.07 125.49-1.6 125.64-2L125.64-2Q126.99-2.1 127.74-2.48 128.49-2.85 128.79-3.78 129.09-4.7 129.09-6.35L129.09-6.35Z" opacity="1" transform="matrix(1,0,0,1,0,0)" fill="#000000" class="wordmark-text-0" data-fill-palette-color="primary" id="text-0"></path></svg></g></svg></g></svg></g></svg></g></svg></g></svg></g></svg></g><g><path d="M0 123.6c0-68.262 55.338-123.6 123.6-123.6 54.728 0 101.148 35.569 117.404 84.852l-2.981 0c-16.146-47.695-61.275-82.025-114.423-82.025-66.701 0-120.773 54.072-120.773 120.773 0 66.701 54.072 120.773 120.773 120.773 53.148 0 98.277-34.33 114.423-82.025l2.981 0c-16.256 49.282-62.676 84.852-117.404 84.852-68.262 0-123.6-55.338-123.6-123.6z" fill="#000000" stroke="transparent" data-fill-palette-color="tertiary"></path></g></svg></g><defs></defs></svg><rect width="395.52" height="247.2" fill="none" stroke="none" visibility="hidden"></rect></g></svg></g></svg>